<?xml version="1.0" encoding="UTF-8" standalone="no"?>
<!DOCTYPE svg PUBLIC "-//W3C//DTD SVG 1.1//EN" "http://www.w3.org/Graphics/SVG/1.1/DTD/svg11.dtd">
<!-- Created with Vectornator (http://vectornator.io/) -->
<svg height="100%" stroke-miterlimit="10" style="fill-rule:nonzero;clip-rule:evenodd;stroke-linecap:round;stroke-linejoin:round;" version="1.1" viewBox="0 0 1024 1024" width="100%" xml:space="preserve" xmlns="http://www.w3.org/2000/svg" xmlns:vectornator="http://vectornator.io" xmlns:xlink="http://www.w3.org/1999/xlink">
<defs>
<linearGradient gradientTransform="matrix(1 0 0 1 0 0)" gradientUnits="userSpaceOnUse" id="LinearGradient" x1="0" x2="1023.95" y1="511.974" y2="511.974">
<stop offset="0" stop-color="#d73cbe" stop-opacity="0.520319"/>
<stop offset="0.469799" stop-color="#beb3ff"/>
<stop offset="1" stop-color="#beb3ff"/>
</linearGradient>
</defs>
<g id="Untitled" vectornator:layerName="Untitled">
<path d="M639.968 0C753.114 0 844.758 90.2611 844.758 201.564C844.758 243.956 837.078 302.73 819.159 359.252C881.108 381.831 929.131 418.283 963.741 466.562C1007.05 527.026 1023.95 597.269 1023.95 665.464C1023.97 684.109 1013.85 701.289 997.531 710.313C977.564 721.321 943.006 736.936 896.672 752.449C862.626 763.815 827.453 773.133 791.359 780.044C809.636 820.081 819.159 860.834 819.159 895.853C819.153 915.614 807.775 933.607 789.925 942.084C767.398 952.784 728.488 968.195 676.933 983.4C591.177 1008.74 500.813 1023.95 409.58 1023.95C318.294 1023.95 227.982 1008.74 142.226 983.4C90.7219 968.144 51.7606 952.784 29.2337 942.084C11.3837 933.607 0.00601707 915.614 0 895.853C0 833.75 29.4385 754.394 84.1686 692.394C119.28 652.756 162.751 621.403 211.445 600.597C188.816 532.709 179.191 460.675 179.191 409.528C179.187 343.778 207.277 281.158 256.386 237.438C305.495 193.718 370.945 173.063 436.253 180.676C446.851 79.2024 534.04 0 639.968 0ZM607.714 600.751C655.327 621.486 695.773 650.361 729.052 686.25C794.808 677.967 859.054 660.384 919.864 634.029C915.615 595.733 903.276 558.001 880.442 526.207C856.892 493.236 823.101 468.149 776.716 452.688C744.718 502.247 700.125 537.522 639.968 537.522C634.899 537.522 629.985 537.266 625.121 536.754C620.513 558.001 614.728 579.555 607.714 600.751ZM639.968 435.127C688.298 435.127 742.363 317.578 742.363 201.564C742.363 147.141 696.9 102.395 639.968 102.395C583.036 102.395 537.573 147.141 537.573 201.564C537.573 207.094 537.676 212.674 537.932 218.203C601.74 260.955 640.014 332.722 639.968 409.528C639.968 417.566 639.712 426.116 639.251 435.127L639.968 435.127ZM160.914 760.128C134.832 789.734 116.191 825.136 106.542 863.394C125.997 870.817 147.653 878.241 171.255 885.204C248.205 907.935 329.046 921.554 409.58 921.554C490.113 921.554 570.954 907.935 647.904 885.204C671.454 878.241 693.111 870.868 712.515 863.445C702.76 825.345 684.148 790.087 658.194 760.538C632.571 731.595 600.758 708.794 565.117 693.828C529.023 751.834 478.286 793.458 409.58 793.458C340.77 793.458 290.033 751.783 253.939 693.674C218.33 708.553 186.534 731.267 160.914 760.128ZM409.58 691.063C473.269 691.063 537.573 549.093 537.573 409.528C537.573 338.839 480.268 281.535 409.58 281.535C338.891 281.535 281.586 338.839 281.586 409.528C281.586 549.093 345.89 691.114 409.58 691.114L409.58 691.063Z" fill="url(#LinearGradient)" fill-rule="nonzero" opacity="1" stroke="none" vectornator:layerName="path"/>
</g>
</svg>
