<?xml version="1.0" encoding="UTF-8" standalone="no"?>
<!DOCTYPE svg PUBLIC "-//W3C//DTD SVG 1.1//EN" "http://www.w3.org/Graphics/SVG/1.1/DTD/svg11.dtd">
<!-- Created with Vectornator (http://vectornator.io/) -->
<svg height="100%" stroke-miterlimit="10" style="fill-rule:nonzero;clip-rule:evenodd;stroke-linecap:round;stroke-linejoin:round;" version="1.1" viewBox="0 0 637.603 599.703" width="100%" xml:space="preserve" xmlns="http://www.w3.org/2000/svg" xmlns:vectornator="http://vectornator.io" xmlns:xlink="http://www.w3.org/1999/xlink">
<defs>
<linearGradient gradientTransform="matrix(1 0 0 1 0 0)" gradientUnits="userSpaceOnUse" id="LinearGradient" x1="336.307" x2="494.307" y1="168.305" y2="168.305">
<stop offset="0" stop-color="#d73cbe"/>
<stop offset="0.469799" stop-color="#beb3ff"/>
<stop offset="1" stop-color="#beb3ff"/>
</linearGradient>
</defs>
<clipPath id="ArtboardFrame">
<rect height="599.703" width="637.603" x="0" y="0"/>
</clipPath>
<g clip-path="url(#ArtboardFrame)" id="Untitled" vectornator:layerName="Untitled">
<path d="M562.736 262.629C562.59 257.484 558.375 253.39 553.228 253.395C552.724 253.404 552.223 253.454 551.728 253.545L535.107 224.861L517.585 228.173L544.602 265.006C545.706 269.165 549.475 272.059 553.779 272.05C558.787 271.993 562.8 267.886 562.742 262.878C562.741 262.795 562.739 262.712 562.736 262.629Z" fill="#deadb4" fill-rule="nonzero" opacity="1" stroke="none" vectornator:layerName="path"/>
<path d="M506.295 581.028L492.409 581.026L485.802 527.463L506.298 527.464L506.295 581.028Z" fill="#deadb4" fill-rule="nonzero" opacity="1" stroke="none" vectornator:layerName="polygon"/>
<path d="M506.784 595.514L464.081 595.512L464.081 594.972C464.082 585.793 471.523 578.352 480.702 578.351L480.703 578.351L488.504 572.434L503.057 578.352L506.785 578.352L506.784 595.514Z" fill="#2f2e41" fill-rule="nonzero" opacity="1" stroke="none" vectornator:layerName="path"/>
<path d="M520.928 501.241L511.57 511.5L467.542 480.287L481.354 465.144L520.928 501.241Z" fill="#deadb4" fill-rule="nonzero" opacity="1" stroke="none" vectornator:layerName="polygon"/>
<path d="M531.961 510.641L503.184 542.192L502.785 541.828C496.003 535.642 495.52 525.129 501.705 518.347L501.705 518.346L502.589 508.595L516.769 501.83L519.281 499.076L531.961 510.641Z" fill="#2f2e41" fill-rule="nonzero" opacity="1" stroke="none" vectornator:layerName="path"/>
<path d="M417.016 225.276L391 272.646L393 306.646L382 416.646L485 502.646L498 483.646L440 409.646L440.695 404.399C438.576 401.213 439.141 396.951 442.017 394.427C447 389.646 442.765 388.782 442.765 388.782L451 326.646L510 314.851L485.252 221.469L417.016 225.276Z" fill="#ffffff" fill-rule="nonzero" opacity="1" stroke="none" vectornator:layerName="path"/>
<path d="M452 292.646L483 553.646L510 556.362L510 465.144C510 465.144 505 460.181 510 457.914C515 455.646 510 447.142 510 447.142L510 314.851L485 275.646L452 292.646Z" fill="#ffffff" fill-rule="nonzero" opacity="1" stroke="none" vectornator:layerName="path"/>
<path d="M356.742 124.646L323.742 134.646L300.482 130.949L295.265 127.222C293.018 121.147 288.491 118.291 282.458 117.559C282.458 117.559 277.578 119.231 277.66 113.938C277.742 108.646 245.742 89.6458 245.742 89.6458L231.742 114.646L249.742 136.646C256.131 136.843 260.068 136 256.742 143.646C258.099 151.009 257.16 149.3 262.644 149.434L290.742 177.646L349.742 186.646L387.214 173.447L356.742 124.646Z" fill="#d73cbe" fill-rule="nonzero" opacity="1" stroke="none" vectornator:layerName="path"/>
<path d="M397 74.6458L373 83.6458L359 115.646C359 115.646 327 131.646 339 153.646C351 175.646 399.287 223.933 399.287 223.933C393.38 235.457 395.401 244.322 405 250.646C417.533 270.748 452.722 260.9 492 245.646C499.269 227.921 488.016 200.469 476.955 173.118L480 136.646C480 136.646 445.504 86.449 440 86.6458C434.496 86.8426 413 84.6458 413 84.6458L397 74.6458Z" fill="url(#LinearGradient)" fill-rule="nonzero" opacity="1" stroke="none" vectornator:layerName="path"/>
<path d="M431 91.7482L431 91.7482C435.179 87.7895 440.912 85.9103 446.623 86.6264C452.335 87.3424 457.426 90.5785 460.499 95.4463L512.813 178.319C517.833 180.697 520.357 186.059 521.856 192.646C525.585 191.381 528.409 193.84 529.269 204.389L549 235.646L531 255.646L506.106 222.646C500.318 221.116 503.009 212.821 499.005 213.233C495 213.646 493.064 205.359 493.064 205.359C488.013 205.302 486.529 202.932 488 198.646L437 125.764L431 91.7482Z" fill="#beb3ff" fill-rule="nonzero" opacity="1" stroke="none" vectornator:layerName="path"/>
<path d="M208.55 89.8826C210.138 94.7787 215.335 97.5205 220.273 96.0669C220.753 95.9172 221.22 95.7279 221.669 95.5011L245.691 118.348L261.573 110.238L225.282 82.498C223.052 78.8173 218.621 77.1018 214.494 78.3209C209.704 79.7857 207.009 84.8559 208.474 89.6454C208.498 89.7248 208.523 89.8039 208.55 89.8826Z" fill="#deadb4" fill-rule="nonzero" opacity="1" stroke="none" vectornator:layerName="path"/>
<path d="M334.494 42.7571C334.494 25.7929 348.246 12.0407 365.21 12.0407C382.175 12.0407 395.927 25.7929 395.927 42.7571C395.927 59.7213 382.175 73.4736 365.21 73.4736C348.246 73.4736 334.494 59.7213 334.494 42.7571Z" fill="#deadb4" fill-rule="nonzero" opacity="1" stroke="none" vectornator:layerName="circle"/>
<path d="M384.918 42.1633C384.891 41.8209 384.856 41.4785 384.812 41.1361C384.769 41.4821 384.805 41.8333 384.918 42.1633Z" fill="#2f2e41" fill-rule="nonzero" opacity="1" stroke="none" vectornator:layerName="path"/>
<path d="M322.464 21.6727C321.925 17.9874 323.977 13.8102 327.566 12.7881C329.802 12.1498 332.188 12.7615 334.507 12.8019C341.014 12.9119 352.577 2.072 358.858 0.411286C365.15-1.24471 373.293 2.21622 373.802 8.7017C389.892 3.91125 402.178 14.7495 402.928 31.8423C403.515 45.2101 392.146 63.4298 380.157 69.3761C378.689 61.5972 384.126 49.9372 382.662 42.1664C382.408 40.0256 381.717 37.9597 380.632 36.0966C379.432 34.3143 377.229 33.0264 375.147 33.5532C373.386 34.0748 372.316 35.8556 372.682 37.6551C370.206 33.4512 365.775 30.7809 360.901 30.5551C356.028 30.3292 351.369 32.5782 348.515 36.5351L350.212 29.5471C345.905 34.2818 340.337 37.6888 334.16 39.3679C333.809 38.9276 333.544 38.4248 333.38 37.8859C333.016 36.7629 333.268 35.5315 334.042 34.6409C332.361 35.9413 331.283 37.8724 331.06 39.9865C327.343 40.6292 323.519 39.8774 320.322 37.8753C317.238 35.7755 323.003 25.358 322.464 21.6727Z" fill="#ffffff" fill-rule="nonzero" opacity="1" stroke="none" vectornator:layerName="path"/>
<path d="M603.11 598.678L569.923 598.678L569.78 598.419C569.356 597.65 568.946 596.834 568.564 595.997C565.145 588.678 563.7 580.308 562.425 572.923L561.465 567.357C561.228 565.978 561.85 564.592 563.038 563.854C564.227 563.115 565.744 563.171 566.876 563.995C571.919 567.665 576.964 571.331 582.012 574.994C583.923 576.384 586.106 577.994 588.196 579.733C588.398 578.753 588.609 577.771 588.819 576.802C589.117 575.434 590.214 574.383 591.594 574.144C592.974 573.906 594.361 574.527 595.1 575.716L598.983 581.955C601.815 586.51 604.315 590.999 603.805 595.841C603.808 595.9 603.803 595.959 603.792 596.017C603.69 596.812 603.501 597.594 603.229 598.348L603.11 598.678Z" fill="#f0f0f0" fill-rule="nonzero" opacity="1" stroke="none" vectornator:layerName="path"/>
<path d="M636.419 599.396L321.061 599.703C320.406 599.7 319.877 599.168 319.877 598.513C319.877 597.857 320.406 597.325 321.061 597.322L636.419 597.015C637.074 597.018 637.604 597.55 637.604 598.205C637.604 598.861 637.074 599.393 636.419 599.396Z" fill="#cacaca" fill-rule="nonzero" opacity="1" stroke="none" vectornator:layerName="path"/>
<path d="M276 472.646L23 472.646C10.3034 472.632 0.0142674 462.342 4.95117e-06 449.646L4.95117e-06 109.646C0.0144378 96.9492 10.3034 86.6602 23 86.6458L276 86.6458C288.697 86.6602 298.986 96.9492 299 109.646L299 449.646C298.986 462.342 288.697 472.632 276 472.646Z" fill="#ffffff" fill-rule="nonzero" opacity="1" stroke="none" vectornator:layerName="path"/>
<path d="M276 472.646L23 472.646C10.3034 472.632 0.0142674 462.342 4.95117e-06 449.646L4.95117e-06 109.646C0.0144378 96.9492 10.3034 86.6602 23 86.6458L276 86.6458C288.697 86.6602 298.986 96.9492 299 109.646L299 449.646C298.986 462.342 288.697 472.632 276 472.646ZM23 88.6458C11.4074 88.6588 2.01301 98.0532 2 109.646L2 449.646C2.01318 461.238 11.4075 470.633 23 470.646L276 470.646C287.593 470.633 296.987 461.238 297 449.646L297 109.646C296.987 98.0532 287.593 88.6588 276 88.6458L23 88.6458Z" fill="#e6e6e6" fill-rule="nonzero" opacity="1" stroke="none" vectornator:layerName="path"/>
<path d="M51.5 189.899C51.5 184.929 55.5294 180.899 60.5 180.899C65.4706 180.899 69.5 184.929 69.5 189.899C69.5 194.87 65.4706 198.899 60.5 198.899C55.5294 198.899 51.5 194.87 51.5 189.899Z" fill="#cccccc" fill-rule="nonzero" opacity="1" stroke="none" vectornator:layerName="circle"/>
<path d="M245.5 190.899L91.2558 190.899C90.7035 190.899 90.2558 190.452 90.2558 189.899C90.2558 189.347 90.7035 188.899 91.2558 188.899L245.5 188.899C246.052 188.899 246.5 189.347 246.5 189.899C246.5 190.452 246.052 190.899 245.5 190.899Z" fill="#cccccc" fill-rule="nonzero" opacity="1" stroke="none" vectornator:layerName="path"/>
<path d="M52 356.899C52 351.929 56.0294 347.899 61 347.899C65.9706 347.899 70 351.929 70 356.899C70 361.87 65.9706 365.899 61 365.899C56.0294 365.899 52 361.87 52 356.899Z" fill="#cccccc" fill-rule="nonzero" opacity="1" stroke="none" vectornator:layerName="circle"/>
<path d="M51.5613 261.499C51.5613 256.528 55.5907 252.499 60.5613 252.499C65.5318 252.499 69.5613 256.528 69.5613 261.499C69.5613 266.469 65.5318 270.499 60.5613 270.499C55.5907 270.499 51.5613 266.469 51.5613 261.499Z" fill="#cccccc" fill-rule="nonzero" opacity="1" stroke="none" vectornator:layerName="circle"/>
<path d="M243.5 215.499L203.5 215.499C201.291 215.499 199.5 213.708 199.5 211.499C199.5 209.289 201.291 207.499 203.5 207.499L243.5 207.499C245.709 207.499 247.5 209.289 247.5 211.499C247.5 213.708 245.709 215.499 243.5 215.499Z" fill="#d73cbe" fill-rule="nonzero" opacity="1" stroke="none" vectornator:layerName="path"/>
<path d="M243.5 314.499L203.5 314.499C201.291 314.499 199.5 312.708 199.5 310.499C199.5 308.289 201.291 306.499 203.5 306.499L243.5 306.499C245.709 306.499 247.5 308.289 247.5 310.499C247.5 312.708 245.709 314.499 243.5 314.499Z" fill="#d73cbe" fill-rule="nonzero" opacity="1" stroke="none" vectornator:layerName="path"/>
<path d="M214.697 140.899L99.8032 140.899C93.9748 140.899 89.25 136.175 89.25 130.346C89.25 124.518 93.9748 119.793 99.8032 119.793L214.697 119.793C220.525 119.793 225.25 124.518 225.25 130.346C225.25 136.175 220.525 140.899 214.697 140.899Z" fill="#d73cbe" fill-rule="nonzero" opacity="1" stroke="none" vectornator:layerName="path"/>
<path d="M243.5 439.499L203.5 439.499C201.291 439.499 199.5 437.708 199.5 435.499C199.5 433.289 201.291 431.499 203.5 431.499L243.5 431.499C245.709 431.499 247.5 433.289 247.5 435.499C247.5 437.708 245.709 439.499 243.5 439.499Z" fill="#d73cbe" fill-rule="nonzero" opacity="1" stroke="none" vectornator:layerName="path"/>
<path d="M235.71 414.899L101.14 414.899C100.291 414.89 99.4455 414.782 98.6206 414.58C93.5522 413.362 89.9845 408.822 90 403.609L90 357.869C90.0098 351.64 95.0604 346.594 101.29 346.589L235.71 346.589C237.522 346.585 239.308 347.022 240.913 347.863C241.552 348.194 242.156 348.589 242.717 349.04C245.431 351.164 247.011 354.423 247 357.869L247 403.609C246.993 409.842 241.942 414.893 235.71 414.899ZM101.29 348.589C96.1646 348.592 92.0087 352.744 92 357.869L92 403.609C91.9874 407.899 94.9237 411.636 99.0948 412.638C99.7685 412.803 100.459 412.891 101.152 412.899L235.71 412.899C240.838 412.893 244.994 408.738 245 403.609L245 357.869C245.009 355.033 243.706 352.352 241.472 350.605C241.012 350.234 240.516 349.91 239.991 349.638C238.671 348.945 237.201 348.585 235.71 348.589L101.29 348.589Z" fill="#e6e6e6" fill-rule="nonzero" opacity="1" stroke="none" vectornator:layerName="path"/>
<path d="M226.69 413.899C232.8 399.049 239.237 384.346 246 369.789L246 394.469C241.388 401.486 236.052 407.998 230.08 413.899L226.69 413.899Z" fill="#e6e6e6" fill-rule="nonzero" opacity="1" stroke="none" vectornator:layerName="path"/>
<path d="M242.09 349.819C230 371.509 217.35 392.869 204.14 413.899L201.84 413.899C215.27 392.539 228.14 370.823 240.45 348.749C241.031 349.051 241.58 349.409 242.09 349.819Z" fill="#e6e6e6" fill-rule="nonzero" opacity="1" stroke="none" vectornator:layerName="path"/>
<path d="M153.37 373.499C145.469 387.468 136.751 400.958 127.26 413.899L113.55 413.899C122.53 402.959 131.517 392.019 140.51 381.079C143.09 377.929 145.89 374.629 149.76 373.349L153.37 373.499Z" fill="#e6e6e6" fill-rule="nonzero" opacity="1" stroke="none" vectornator:layerName="path"/>
<path d="M135.15 371.259C133.72 372.749 132.35 374.299 131.06 375.909C128.22 379.329 125.42 382.779 122.61 386.219C120.86 388.359 119.11 390.499 117.38 392.639C116.831 392.287 116.309 391.892 115.82 391.459C110.073 386.471 109.366 377.804 114.23 371.95C119.093 366.097 127.743 365.203 133.7 369.939C134.216 370.342 134.701 370.783 135.15 371.259Z" fill="#d73cbe" fill-rule="nonzero" opacity="1" stroke="none" vectornator:layerName="path"/>
<path d="M212.48 380.979L186.2 371.369L173.15 366.599C168.9 365.049 164.66 363.279 160.27 362.159C156.452 361.068 152.398 361.12 148.61 362.309C145.232 363.56 142.14 365.478 139.52 367.949C138.36 369.019 137.237 370.123 136.15 371.259C134.72 372.749 133.35 374.299 132.06 375.909C129.22 379.329 126.42 382.779 123.61 386.219C121.86 388.359 120.11 390.499 118.38 392.639C112.6 399.709 106.853 406.796 101.14 413.899C100.371 413.89 99.6063 413.793 98.86 413.609C104.82 406.209 110.807 398.826 116.82 391.459C117.51 390.599 118.22 389.729 118.92 388.869C121.85 385.279 124.783 381.693 127.72 378.109C129.99 375.339 132.24 372.549 134.7 369.939C134.92 369.699 135.14 369.469 135.37 369.229C140.36 364.069 146.59 359.509 154.05 359.389C158.44 359.319 162.68 360.709 166.76 362.179C171.15 363.769 175.53 365.389 179.92 366.999L206.38 376.679L213 379.099C214.17 379.519 213.67 381.419 212.48 380.979Z" fill="#e6e6e6" fill-rule="nonzero" opacity="1" stroke="none" vectornator:layerName="path"/>
<path d="M127.038 289.691L95.8492 289.691C92.3781 289.687 89.5651 286.874 89.5612 283.403L89.5612 254.227C89.5651 250.756 92.3781 247.943 95.8492 247.939L127.038 247.939C130.509 247.943 133.322 250.756 133.326 254.227L133.326 283.403C133.322 286.874 130.509 289.687 127.038 289.691Z" fill="#e6e6e6" fill-rule="nonzero" opacity="1" stroke="none" vectornator:layerName="path"/>
<path d="M182.669 289.691L151.48 289.691C148.009 289.687 145.196 286.874 145.192 283.403L145.192 254.227C145.196 250.756 148.009 247.943 151.48 247.939L182.669 247.939C186.14 247.943 188.953 250.756 188.957 254.227L188.957 283.403C188.953 286.874 186.14 289.687 182.669 289.691Z" fill="#e6e6e6" fill-rule="nonzero" opacity="1" stroke="none" vectornator:layerName="path"/>
<path d="M238.3 289.691L207.112 289.691C203.64 289.687 200.827 286.874 200.824 283.403L200.824 254.227C200.827 250.756 203.64 247.943 207.112 247.939L238.3 247.939C241.771 247.943 244.584 250.756 244.588 254.227L244.588 283.403C244.584 286.874 241.771 289.687 238.3 289.691Z" fill="#e6e6e6" fill-rule="nonzero" opacity="1" stroke="none" vectornator:layerName="path"/>
</g>
</svg>
